<?xml version="1.0" encoding="utf-8"?>
<!-- Generator: Adobe Illustrator 17.0.0, SVG Export Plug-In . SVG Version: 6.00 Build 0)  -->
<!DOCTYPE svg PUBLIC "-//W3C//DTD SVG 1.1//EN" "http://www.w3.org/Graphics/SVG/1.1/DTD/svg11.dtd">
<svg version="1.1" id="Layer_1" xmlns="http://www.w3.org/2000/svg" xmlns:xlink="http://www.w3.org/1999/xlink" x="0px" y="0px"
	 width="435.252px" height="567.252px" viewBox="0 0 435.252 567.252" enable-background="new 0 0 435.252 567.252"
	 xml:space="preserve">
<path fill="#2B2A29" d="M302.126,6.252h-171C61.345,6.252,4.252,63.345,4.252,133.126v303C4.252,505.906,61.345,563,131.126,563h171
	C371.907,563,429,505.906,429,436.126v-303C429,63.345,371.907,6.252,302.126,6.252 M131.126,2h171
	c72.119,0,131.126,59.007,131.126,131.126v303c0,72.119-59.007,131.126-131.126,131.126h-171C59.007,567.252,0,508.245,0,436.126
	v-303C0,61.007,59.007,2,131.126,2z"/>
<path fill-rule="evenodd" clip-rule="evenodd" fill="#2B2A29" d="M302.126,16.995h-171c-63.872,0-116.131,52.259-116.131,116.131
	v303c0,63.872,52.259,116.131,116.131,116.131h171c63.872,0,116.131-52.259,116.131-116.131v-303
	C418.257,69.254,365.998,16.995,302.126,16.995 M27.865,133.126c0-56.794,46.467-103.261,103.261-103.261h171
	c56.794,0,103.261,46.468,103.261,103.261v303c0,56.794-46.467,103.261-103.261,103.261h-171
	c-56.794,0-103.261-46.467-103.261-103.261V133.126z"/>
<path fill-rule="evenodd" clip-rule="evenodd" fill="#2B2A29" d="M293.633,189.333v16.428h-7.925v-16.428
	c0-4.458-1.734-7.1-6.068-7.1s-6.068,2.683-6.068,7.1v16.428h-7.925v-16.428c0-9.205,4.664-14.446,14.034-14.446
	C288.969,174.887,293.633,180.046,293.633,189.333"/>
<rect x="208.44" y="164.526" fill-rule="evenodd" clip-rule="evenodd" fill="#2B2A29" width="7.925" height="41.276"/>
<polygon fill-rule="evenodd" clip-rule="evenodd" fill="#2B2A29" points="249.551,175.959 240.429,175.959 229.738,189.168 
	229.738,164.568 221.814,164.568 221.814,205.802 229.738,205.802 229.738,191.52 240.429,205.802 250.087,205.802 237.746,189.746 
	"/>
<rect x="253.101" y="175.959" fill-rule="evenodd" clip-rule="evenodd" fill="#2B2A29" width="7.925" height="29.884"/>
<path fill-rule="evenodd" clip-rule="evenodd" fill="#2B2A29" d="M257.063,163.04c-2.518,0-4.581,2.064-4.581,4.582
	c0,2.518,2.064,4.582,4.581,4.582c2.518,0,4.582-2.064,4.582-4.582C261.645,165.104,259.581,163.04,257.063,163.04"/>
<path fill-rule="evenodd" clip-rule="evenodd" fill="#2B2A29" d="M257.063,163.04c-2.518,0-4.581,2.064-4.581,4.582
	c0,2.518,2.064,4.582,4.581,4.582c2.518,0,4.582-2.064,4.582-4.582C261.645,165.104,259.581,163.04,257.063,163.04"/>
<path fill-rule="evenodd" clip-rule="evenodd" fill="#2B2A29" d="M154.658,199.28c-4.499,0-7.925-3.673-7.925-8.503
	c0-4.829,3.426-8.503,7.925-8.503c4.499,0,7.884,3.674,7.884,8.503C162.583,195.648,159.157,199.28,154.658,199.28 M156.309,174.928
	c-4.375,0-7.677,1.981-9.328,4.086v-14.859h-8.255v26.499c0,9.411,6.563,15.974,15.891,15.974c9.328,0,15.932-6.522,15.932-15.85
	C170.549,181.325,164.853,174.928,156.309,174.928z"/>
<path fill-rule="evenodd" clip-rule="evenodd" fill="#2B2A29" d="M181.652,188.094c0.537-3.715,3.054-6.604,7.347-6.604
	c4.334,0,6.728,2.889,7.264,6.604H181.652z M204.271,191.232c0-10.278-5.613-16.345-15.024-16.345
	c-8.915,0-15.644,6.934-15.644,16.139c0,9.328,6.439,15.602,16.098,15.602c5.696,0,9.617-2.105,11.929-3.962l-4.045-5.49
	c-2.188,1.899-4.788,2.683-7.925,2.683c-4.251,0-7.677-2.683-8.09-6.398h22.578C204.23,193.048,204.271,191.892,204.271,191.232z"/>
<path fill="#2B2A29" d="M301.558,288.496c-21.733-22.027-51.761-35.651-84.932-35.651s-63.199,13.624-84.932,35.651
	c-21.743,22.037-35.192,52.487-35.192,86.126c0,33.639,13.449,64.089,35.192,86.126c21.733,22.027,51.761,35.651,84.932,35.651
	s63.199-13.624,84.932-35.651c21.743-22.037,35.192-52.487,35.192-86.126C336.749,340.983,323.3,310.533,301.558,288.496
	 M216.626,248.593c34.345,0,65.442,14.113,87.955,36.93c22.502,22.807,36.421,54.309,36.421,89.099
	c0,34.79-13.918,66.292-36.421,89.099c-22.512,22.817-53.61,36.93-87.955,36.93s-65.442-14.113-87.955-36.93
	c-22.502-22.807-36.421-54.309-36.421-89.099c0-34.79,13.918-66.292,36.421-89.099C151.184,262.706,182.281,248.593,216.626,248.593
	z"/>
<ellipse fill-rule="evenodd" clip-rule="evenodd" fill="#2B2A29" cx="154.375" cy="374.622" rx="15.912" ry="16.127"/>
<ellipse fill="none" stroke="#2B2A29" stroke-width="0.5669" stroke-miterlimit="22.9256" cx="154.375" cy="374.622" rx="15.912" ry="16.127"/>
<ellipse fill-rule="evenodd" clip-rule="evenodd" fill="#2B2A29" cx="278.875" cy="374.622" rx="15.912" ry="16.127"/>
<ellipse fill="none" stroke="#2B2A29" stroke-width="0.5669" stroke-miterlimit="22.9256" cx="278.875" cy="374.622" rx="15.912" ry="16.127"/>
</svg>
