<?xml version="1.0" encoding="utf-8"?>

<!-- License Agreement at http://iconmonstr.com/license/ -->

<!DOCTYPE svg PUBLIC "-//W3C//DTD SVG 1.1//EN" "http://www.w3.org/Graphics/SVG/1.1/DTD/svg11.dtd">
<svg version="1.1" xmlns="http://www.w3.org/2000/svg" xmlns:xlink="http://www.w3.org/1999/xlink" x="0px" y="0px"
	 width="512px" height="512px" viewBox="0 0 512 512" enable-background="new 0 0 512 512" xml:space="preserve">
<path id="light-bulb-icon" d="M310.898,375.609c0,6.137-4.976,11.112-11.112,11.112h-87.571c-6.138,0-11.114-4.976-11.114-11.112
	c0-6.138,4.976-11.113,11.114-11.113h87.57C305.923,364.496,310.898,369.472,310.898,375.609z M297.785,401.497h-83.57
	c-6.138,0-11.114,4.976-11.114,11.113c0,6.137,4.976,11.112,11.114,11.112h83.571c6.137,0,11.112-4.976,11.112-11.112
	C308.898,406.473,303.923,401.497,297.785,401.497z M247.288,462h16.636c8.442,0,10.522-3.723,33.29-24.019h-82.428
	C236.423,457.983,238.651,462,247.288,462z M382.51,171.709c0,75.244-66.71,117.411-66.71,176.788H196.2
	c0-59.377-66.709-101.544-66.709-176.788C129.49,93.207,192.698,50,255.929,50C319.208,50,382.51,93.266,382.51,171.709z"/>
</svg>
